<mxfile host="65bd71144e">
    <diagram id="svSEaXq6_SZsIZfI6RL0" name="Page-1">
        <mxGraphModel dx="474" dy="899" grid="1" gridSize="10" guides="1" tooltips="1" connect="1" arrows="1" fold="1" page="1" pageScale="1" pageWidth="850" pageHeight="1100" math="0" shadow="0">
            <root>
                <mxCell id="0"/>
                <mxCell id="1" parent="0"/>
                <mxCell id="45" value="User" style="shape=umlLifeline;participant=umlActor;perimeter=lifelinePerimeter;whiteSpace=wrap;html=1;container=1;collapsible=0;recursiveResize=0;verticalAlign=top;spacingTop=36;outlineConnect=0;" parent="1" vertex="1">
                    <mxGeometry x="110" y="120" width="20" height="900" as="geometry"/>
                </mxCell>
                <mxCell id="47" value="" style="html=1;points=[];perimeter=orthogonalPerimeter;" parent="45" vertex="1">
                    <mxGeometry x="5" y="70" width="10" height="810" as="geometry"/>
                </mxCell>
                <mxCell id="46" value="Product Browsing&amp;nbsp;" style="shape=umlLifeline;perimeter=lifelinePerimeter;whiteSpace=wrap;html=1;container=1;collapsible=0;recursiveResize=0;outlineConnect=0;" parent="1" vertex="1">
                    <mxGeometry x="280" y="120" width="100" height="900" as="geometry"/>
                </mxCell>
                <mxCell id="50" value="" style="html=1;points=[];perimeter=orthogonalPerimeter;" parent="46" vertex="1">
                    <mxGeometry x="45" y="80" width="10" height="70" as="geometry"/>
                </mxCell>
                <mxCell id="90" value="Display Product" style="html=1;verticalAlign=bottom;endArrow=open;dashed=1;endSize=8;" parent="46" source="46" edge="1">
                    <mxGeometry relative="1" as="geometry">
                        <mxPoint x="30" y="130" as="sourcePoint"/>
                        <mxPoint x="-155" y="129.99999999999997" as="targetPoint"/>
                    </mxGeometry>
                </mxCell>
                <mxCell id="48" value="In cart" style="shape=umlLifeline;perimeter=lifelinePerimeter;whiteSpace=wrap;html=1;container=1;collapsible=0;recursiveResize=0;outlineConnect=0;" parent="1" vertex="1">
                    <mxGeometry x="450" y="120" width="100" height="900" as="geometry"/>
                </mxCell>
                <mxCell id="54" value="" style="html=1;points=[];perimeter=orthogonalPerimeter;" parent="48" vertex="1">
                    <mxGeometry x="45" y="140" width="10" height="310" as="geometry"/>
                </mxCell>
                <mxCell id="73" value="" style="html=1;points=[];perimeter=orthogonalPerimeter;" parent="48" vertex="1">
                    <mxGeometry x="45" y="490" width="10" height="230" as="geometry"/>
                </mxCell>
                <mxCell id="49" value="KTDI Minimart Online System" style="shape=umlLifeline;perimeter=lifelinePerimeter;whiteSpace=wrap;html=1;container=1;collapsible=0;recursiveResize=0;outlineConnect=0;" parent="1" vertex="1">
                    <mxGeometry x="620" y="120" width="100" height="910" as="geometry"/>
                </mxCell>
                <mxCell id="52" value="" style="html=1;points=[];perimeter=orthogonalPerimeter;" parent="49" vertex="1">
                    <mxGeometry x="45" y="160" width="10" height="80" as="geometry"/>
                </mxCell>
                <mxCell id="56" value="" style="html=1;points=[];perimeter=orthogonalPerimeter;" parent="49" vertex="1">
                    <mxGeometry x="45" y="270" width="10" height="300" as="geometry"/>
                </mxCell>
                <mxCell id="51" value="Find Product" style="html=1;verticalAlign=bottom;endArrow=block;exitX=1.067;exitY=0.037;exitDx=0;exitDy=0;exitPerimeter=0;" parent="1" source="47" target="46" edge="1">
                    <mxGeometry width="80" relative="1" as="geometry">
                        <mxPoint x="130" y="220" as="sourcePoint"/>
                        <mxPoint x="320" y="220" as="targetPoint"/>
                    </mxGeometry>
                </mxCell>
                <mxCell id="53" value="Click Add Cart" style="html=1;verticalAlign=bottom;endArrow=block;" parent="1" source="47" edge="1">
                    <mxGeometry width="80" relative="1" as="geometry">
                        <mxPoint x="130" y="300" as="sourcePoint"/>
                        <mxPoint x="500" y="300" as="targetPoint"/>
                    </mxGeometry>
                </mxCell>
                <mxCell id="55" value="Select category and products&amp;nbsp;&amp;nbsp;" style="html=1;verticalAlign=bottom;endArrow=block;entryX=0;entryY=0.581;entryDx=0;entryDy=0;entryPerimeter=0;" parent="1" source="45" target="54" edge="1">
                    <mxGeometry width="80" relative="1" as="geometry">
                        <mxPoint x="130" y="407" as="sourcePoint"/>
                        <mxPoint x="490" y="440" as="targetPoint"/>
                        <Array as="points">
                            <mxPoint x="270" y="440"/>
                            <mxPoint x="410" y="440"/>
                        </Array>
                    </mxGeometry>
                </mxCell>
                <mxCell id="57" value="" style="html=1;verticalAlign=bottom;endArrow=block;entryX=0.009;entryY=0.098;entryDx=0;entryDy=0;entryPerimeter=0;" parent="1" source="48" target="56" edge="1">
                    <mxGeometry x="0.9385" y="29" width="80" relative="1" as="geometry">
                        <mxPoint x="530" y="428" as="sourcePoint"/>
                        <mxPoint x="640" y="420" as="targetPoint"/>
                        <mxPoint x="1" as="offset"/>
                    </mxGeometry>
                </mxCell>
                <mxCell id="59" value="Check Item Availability" style="html=1;verticalAlign=bottom;endArrow=open;dashed=1;endSize=8;exitX=-0.256;exitY=0.414;exitDx=0;exitDy=0;exitPerimeter=0;" parent="1" source="54" target="47" edge="1">
                    <mxGeometry relative="1" as="geometry">
                        <mxPoint x="400" y="490" as="sourcePoint"/>
                        <mxPoint x="420" y="480" as="targetPoint"/>
                    </mxGeometry>
                </mxCell>
                <mxCell id="58" value="Display Available Options" style="html=1;verticalAlign=bottom;endArrow=open;dashed=1;endSize=8;exitX=-0.036;exitY=0.199;exitDx=0;exitDy=0;exitPerimeter=0;" parent="1" source="56" target="48" edge="1">
                    <mxGeometry relative="1" as="geometry">
                        <mxPoint x="660" y="450" as="sourcePoint"/>
                        <mxPoint x="510" y="470" as="targetPoint"/>
                    </mxGeometry>
                </mxCell>
                <mxCell id="71" value="Access Cart" style="html=1;verticalAlign=bottom;endArrow=block;exitX=1.005;exitY=0.494;exitDx=0;exitDy=0;exitPerimeter=0;entryX=-0.014;entryY=0.666;entryDx=0;entryDy=0;entryPerimeter=0;" parent="1" source="47" target="56" edge="1">
                    <mxGeometry x="0.0004" width="80" relative="1" as="geometry">
                        <mxPoint x="130" y="590" as="sourcePoint"/>
                        <mxPoint x="660" y="590" as="targetPoint"/>
                        <mxPoint as="offset"/>
                    </mxGeometry>
                </mxCell>
                <mxCell id="77" value="Display Cart Items" style="html=1;verticalAlign=bottom;endArrow=open;dashed=1;endSize=8;exitX=0.009;exitY=0.898;exitDx=0;exitDy=0;exitPerimeter=0;" parent="1" source="56" target="73" edge="1">
                    <mxGeometry x="-0.0006" relative="1" as="geometry">
                        <mxPoint x="660" y="660" as="sourcePoint"/>
                        <mxPoint x="510" y="659" as="targetPoint"/>
                        <mxPoint as="offset"/>
                    </mxGeometry>
                </mxCell>
                <mxCell id="91" value="Display Confirmation Message" style="html=1;verticalAlign=bottom;endArrow=open;dashed=1;endSize=8;exitX=-0.256;exitY=0.414;exitDx=0;exitDy=0;exitPerimeter=0;entryX=1;entryY=0.273;entryDx=0;entryDy=0;entryPerimeter=0;" parent="1" target="47" edge="1">
                    <mxGeometry relative="1" as="geometry">
                        <mxPoint x="497.44000000000005" y="409.99999999999994" as="sourcePoint"/>
                        <mxPoint x="130" y="409.99999999999994" as="targetPoint"/>
                    </mxGeometry>
                </mxCell>
                <mxCell id="92" value="&lt;span style=&quot;font-size: 11px; background-color: rgb(255, 255, 255);&quot;&gt;Continue Shopping or Proceed Checkout&amp;nbsp;&lt;/span&gt;" style="text;html=1;align=center;verticalAlign=middle;resizable=0;points=[];autosize=1;strokeColor=none;fillColor=none;" parent="1" vertex="1">
                    <mxGeometry x="480" y="390" width="230" height="30" as="geometry"/>
                </mxCell>
                <mxCell id="94" value="Update quantities, Remove items or Apply Discounts" style="html=1;verticalAlign=bottom;endArrow=block;exitX=1;exitY=0.667;exitDx=0;exitDy=0;exitPerimeter=0;" parent="1" source="47" edge="1">
                    <mxGeometry width="80" relative="1" as="geometry">
                        <mxPoint x="130" y="730" as="sourcePoint"/>
                        <mxPoint x="500" y="730" as="targetPoint"/>
                        <Array as="points">
                            <mxPoint x="280.5" y="730"/>
                            <mxPoint x="420.5" y="730"/>
                        </Array>
                    </mxGeometry>
                </mxCell>
                <mxCell id="97" value="alt" style="shape=umlFrame;whiteSpace=wrap;html=1;width=120;height=30;boundedLbl=1;verticalAlign=middle;align=left;spacingLeft=5;" parent="1" vertex="1">
                    <mxGeometry x="235" y="320" width="465" height="190" as="geometry"/>
                </mxCell>
                <mxCell id="99" value="UC005:Sequence Diagram" style="shape=umlFrame;whiteSpace=wrap;html=1;" parent="1" vertex="1">
                    <mxGeometry x="46" y="70" width="724" height="990" as="geometry"/>
                </mxCell>
            </root>
        </mxGraphModel>
    </diagram>
</mxfile>